<mxfile host="app.diagrams.net" modified="2023-11-30T13:51:18.504Z" agent="Mozilla/5.0 (Macintosh; Intel Mac OS X 10_15_7) AppleWebKit/537.36 (KHTML, like Gecko) Chrome/119.0.0.0 Safari/537.36" etag="4MyLR8vYClkmdB-krD63" version="22.1.5" type="github">
  <diagram name="Halaman-1" id="PpXOaW4QuxUs9zCqDB_B">
    <mxGraphModel dx="2134" dy="1440" grid="0" gridSize="10" guides="1" tooltips="1" connect="1" arrows="1" fold="1" page="0" pageScale="1" pageWidth="827" pageHeight="1169" math="0" shadow="0">
      <root>
        <mxCell id="0" />
        <mxCell id="1" parent="0" />
        <mxCell id="sLQCOglT2192zuMqJqdj-2" value="&lt;font style=&quot;font-size: 20px;&quot;&gt;Project Aplikasi MyGudang&lt;/font&gt;" style="rounded=0;whiteSpace=wrap;html=1;fontSize=16;fillColor=#7EA6E0;" vertex="1" parent="1">
          <mxGeometry x="89" y="-25" width="225" height="60" as="geometry" />
        </mxCell>
        <mxCell id="sLQCOglT2192zuMqJqdj-3" value="&lt;span style=&quot;font-size: 20px;&quot;&gt;1. Analisa Kebutuhan&lt;/span&gt;" style="rounded=0;whiteSpace=wrap;html=1;fontSize=16;fillColor=#7EA6E0;" vertex="1" parent="1">
          <mxGeometry x="-369" y="218" width="225" height="60" as="geometry" />
        </mxCell>
        <mxCell id="sLQCOglT2192zuMqJqdj-4" value="&lt;span style=&quot;font-size: 20px;&quot;&gt;2. Perancangan &lt;br&gt;Aplikasi dan Design&lt;/span&gt;" style="rounded=0;whiteSpace=wrap;html=1;fontSize=16;fillColor=#7EA6E0;" vertex="1" parent="1">
          <mxGeometry x="-44" y="218" width="225" height="60" as="geometry" />
        </mxCell>
        <mxCell id="sLQCOglT2192zuMqJqdj-5" value="&lt;span style=&quot;font-size: 20px;&quot;&gt;3. Implementasi&lt;/span&gt;" style="rounded=0;whiteSpace=wrap;html=1;fontSize=16;fillColor=#7EA6E0;" vertex="1" parent="1">
          <mxGeometry x="241" y="218" width="225" height="60" as="geometry" />
        </mxCell>
        <mxCell id="sLQCOglT2192zuMqJqdj-6" value="&lt;span style=&quot;font-size: 20px;&quot;&gt;4. Integrasi dan Uji Coba Testing serta Perbaikan Sistem&lt;/span&gt;" style="rounded=0;whiteSpace=wrap;html=1;fontSize=16;fillColor=#7EA6E0;" vertex="1" parent="1">
          <mxGeometry x="537" y="216.5" width="330" height="63" as="geometry" />
        </mxCell>
        <mxCell id="sLQCOglT2192zuMqJqdj-7" value="" style="edgeStyle=segmentEdgeStyle;endArrow=none;html=1;curved=0;rounded=0;endSize=8;startSize=8;fontSize=12;exitX=0.5;exitY=0;exitDx=0;exitDy=0;strokeColor=#7EA6E0;strokeWidth=2;endFill=0;" edge="1" parent="1" source="sLQCOglT2192zuMqJqdj-3" target="sLQCOglT2192zuMqJqdj-2">
          <mxGeometry width="50" height="50" relative="1" as="geometry">
            <mxPoint x="-238" y="12" as="sourcePoint" />
            <mxPoint x="-188" y="-38" as="targetPoint" />
            <Array as="points">
              <mxPoint x="-256" y="176" />
              <mxPoint x="202" y="176" />
            </Array>
          </mxGeometry>
        </mxCell>
        <mxCell id="sLQCOglT2192zuMqJqdj-8" value="" style="edgeStyle=segmentEdgeStyle;endArrow=none;html=1;curved=0;rounded=0;endSize=8;startSize=8;fontSize=12;exitX=0.5;exitY=0;exitDx=0;exitDy=0;strokeColor=#7EA6E0;strokeWidth=2;endFill=0;entryX=0.5;entryY=1;entryDx=0;entryDy=0;" edge="1" parent="1" source="sLQCOglT2192zuMqJqdj-4" target="sLQCOglT2192zuMqJqdj-2">
          <mxGeometry width="50" height="50" relative="1" as="geometry">
            <mxPoint x="-246" y="228" as="sourcePoint" />
            <mxPoint x="212" y="45" as="targetPoint" />
            <Array as="points">
              <mxPoint x="66" y="218" />
              <mxPoint x="66" y="177" />
              <mxPoint x="202" y="177" />
              <mxPoint x="202" y="35" />
            </Array>
          </mxGeometry>
        </mxCell>
        <mxCell id="sLQCOglT2192zuMqJqdj-9" value="" style="edgeStyle=segmentEdgeStyle;endArrow=none;html=1;curved=0;rounded=0;endSize=8;startSize=8;fontSize=12;exitX=0.5;exitY=0;exitDx=0;exitDy=0;strokeColor=#7EA6E0;strokeWidth=2;endFill=0;entryX=0.5;entryY=1;entryDx=0;entryDy=0;" edge="1" parent="1" source="sLQCOglT2192zuMqJqdj-5" target="sLQCOglT2192zuMqJqdj-2">
          <mxGeometry width="50" height="50" relative="1" as="geometry">
            <mxPoint x="79" y="228" as="sourcePoint" />
            <mxPoint x="212" y="45" as="targetPoint" />
            <Array as="points">
              <mxPoint x="354" y="177" />
              <mxPoint x="202" y="177" />
              <mxPoint x="202" y="45" />
              <mxPoint x="202" y="45" />
            </Array>
          </mxGeometry>
        </mxCell>
        <mxCell id="sLQCOglT2192zuMqJqdj-10" value="" style="edgeStyle=segmentEdgeStyle;endArrow=none;html=1;curved=0;rounded=0;endSize=8;startSize=8;fontSize=12;exitX=0.5;exitY=0;exitDx=0;exitDy=0;strokeColor=#7EA6E0;strokeWidth=2;endFill=0;entryX=0.5;entryY=1;entryDx=0;entryDy=0;" edge="1" parent="1" source="sLQCOglT2192zuMqJqdj-6" target="sLQCOglT2192zuMqJqdj-2">
          <mxGeometry width="50" height="50" relative="1" as="geometry">
            <mxPoint x="364" y="228" as="sourcePoint" />
            <mxPoint x="212" y="45" as="targetPoint" />
            <Array as="points">
              <mxPoint x="702" y="177" />
              <mxPoint x="202" y="177" />
            </Array>
          </mxGeometry>
        </mxCell>
      </root>
    </mxGraphModel>
  </diagram>
</mxfile>
